<?xml version="1.0" encoding="UTF-8" standalone="no"?>
<!-- Created with Inkscape (http://www.inkscape.org/) -->

<svg
   width="135.46654mm"
   height="135.46666mm"
   viewBox="0 0 135.46654 135.46666"
   version="1.1"
   id="svg581"
   xml:space="preserve"
   inkscape:version="1.2.1 (9c6d41e410, 2022-07-14)"
   sodipodi:docname="icon.svg"
   xmlns:inkscape="http://www.inkscape.org/namespaces/inkscape"
   xmlns:sodipodi="http://sodipodi.sourceforge.net/DTD/sodipodi-0.dtd"
   xmlns="http://www.w3.org/2000/svg"
   xmlns:svg="http://www.w3.org/2000/svg"><sodipodi:namedview
     id="namedview583"
     pagecolor="#505050"
     bordercolor="#ffffff"
     borderopacity="1"
     inkscape:showpageshadow="0"
     inkscape:pageopacity="0"
     inkscape:pagecheckerboard="1"
     inkscape:deskcolor="#505050"
     inkscape:document-units="mm"
     showgrid="false"
     inkscape:zoom="1.1705808"
     inkscape:cx="20.502643"
     inkscape:cy="244.32316"
     inkscape:window-width="1600"
     inkscape:window-height="837"
     inkscape:window-x="-8"
     inkscape:window-y="-8"
     inkscape:window-maximized="1"
     inkscape:current-layer="layer2" /><defs
     id="defs578"><linearGradient
       id="linearGradient1279"
       inkscape:swatch="solid"><stop
         style="stop-color:#000000;stop-opacity:1;"
         offset="0"
         id="stop1277" /></linearGradient></defs><g
     inkscape:groupmode="layer"
     id="layer2"
     inkscape:label="Layer 2"
     style="opacity:1"
     transform="translate(-4.7429781,-7.4773746)"><path
       style="display:inline;opacity:1;fill:#000000;fill-opacity:1;stroke:none;stroke-width:12.6073;stroke-dasharray:none;stroke-opacity:1"
       d="m 107.54393,26.589369 c 0,0 17.64315,2.56255 17.7691,2.568811 1.22908,0.06109 1.97917,1.674754 1.97308,2.117019 l -15.56663,92.643951 c -0.46261,1.0845 -1.11005,1.84301 -2.84258,2.05016 L 17.954907,110.25519 98.54416,109.75095 c 6.82585,0.18287 8.74687,-4.04658 8.63906,-7.94176 l 0.25458,-53.08686 1.2511,-5.325918 -1.22594,0.07873 z"
       id="path7778"
       sodipodi:nodetypes="cscccccccccc" /><rect
       style="opacity:1;fill:#000000;fill-opacity:1;stroke:none;stroke-width:12.6124;stroke-dasharray:none;stroke-opacity:1"
       id="rect1335"
       width="15.755939"
       height="97.070267"
       x="86.098701"
       y="7.4773746"
       ry="1.7662545" /><rect
       style="opacity:1;fill:#000000;fill-opacity:1;stroke:none;stroke-width:12.858;stroke-dasharray:none;stroke-opacity:1"
       id="rect1335-8"
       width="16.373543"
       height="97.081406"
       x="4.7429781"
       y="7.5057373"
       ry="1.7664573" /><rect
       style="opacity:1;fill:#000000;fill-opacity:1;stroke:none;stroke-width:12.6376;stroke-dasharray:none;stroke-opacity:1"
       id="rect1723"
       width="70.005302"
       height="16.345615"
       x="17.72566"
       y="7.5075216"
       rx="0"
       ry="0" /><rect
       style="opacity:1;fill:#000000;fill-opacity:1;stroke:none;stroke-width:15.388;stroke-dasharray:none;stroke-opacity:1"
       id="rect1723-1"
       width="70.005302"
       height="24.234299"
       x="18.643583"
       y="80.240303"
       rx="0"
       ry="0" /><path
       style="opacity:1;fill:#000000;fill-opacity:1;stroke:none;stroke-width:14.0022;stroke-dasharray:none;stroke-opacity:1"
       id="path2537"
       sodipodi:type="arc"
       sodipodi:cx="53.263386"
       sodipodi:cy="-79.803833"
       sodipodi:rx="27.065744"
       sodipodi:ry="15.643657"
       sodipodi:start="6.232283"
       sodipodi:end="3.166161"
       sodipodi:open="true"
       sodipodi:arc-type="arc"
       d="M 80.294073,-80.599787 A 27.065744,15.643657 0 0 1 67.39517,-66.461873 27.065744,15.643657 0 0 1 39.744311,-66.251428 27.065744,15.643657 0 0 1 26.205809,-80.188133"
       transform="scale(1,-1)" /><path
       style="opacity:1;fill:#000000;fill-opacity:1;stroke:none;stroke-width:12.6877;stroke-dasharray:none;stroke-opacity:1"
       id="path3332"
       sodipodi:type="arc"
       sodipodi:cx="53.56707"
       sodipodi:cy="45.067898"
       sodipodi:rx="13.469679"
       sodipodi:ry="18.54063"
       sodipodi:start="3.1689039"
       sodipodi:end="3.1680885"
       sodipodi:arc-type="arc"
       d="M 40.102414,44.561593 A 13.469679,18.54063 0 0 1 53.932153,26.534079 13.469679,18.54063 0 0 1 67.031874,45.566646 13.469679,18.54063 0 0 1 53.207476,63.60192 13.469679,18.54063 0 0 1 40.102119,44.576706"
       sodipodi:open="true" /><rect
       style="opacity:1;fill:#000000;fill-opacity:1;stroke:none;stroke-width:12.7426;stroke-dasharray:none;stroke-opacity:1"
       id="rect6501"
       width="17.94722"
       height="6.7744608"
       x="44.345512"
       y="59.196217" /><path
       style="opacity:1;fill:#000000;fill-opacity:1;stroke:none;stroke-width:16.9115;stroke-dasharray:none;stroke-opacity:1"
       id="path6503"
       sodipodi:type="arc"
       sodipodi:cx="53.307621"
       sodipodi:cy="36.243271"
       sodipodi:rx="13.733874"
       sodipodi:ry="9.6268654"
       sodipodi:start="3.1689039"
       sodipodi:end="2.8842013"
       sodipodi:open="true"
       sodipodi:arc-type="arc"
       d="M 39.578868,35.980382 A 13.733874,9.6268654 0 0 1 52.705386,26.625665 13.733874,9.6268654 0 0 1 66.950717,35.138237 13.733874,9.6268654 0 0 1 55.850329,45.703706 13.733874,9.6268654 0 0 1 40.026177,38.693873" /><path
       style="opacity:1;fill:#000000;fill-opacity:1;stroke:none;stroke-width:7.1032;stroke-dasharray:none;stroke-opacity:1"
       id="path6509"
       sodipodi:type="arc"
       sodipodi:cx="40.199085"
       sodipodi:cy="49.321102"
       sodipodi:rx="1.4028955"
       sodipodi:ry="2.5999806"
       sodipodi:start="3.1689039"
       sodipodi:end="2.8842013"
       sodipodi:arc-type="arc"
       d="m 38.796713,49.250102 a 1.4028955,2.5999806 0 0 1 1.340855,-2.52648 1.4028955,2.5999806 0 0 1 1.45514,2.299038 1.4028955,2.5999806 0 0 1 -1.133889,2.853474 1.4028955,2.5999806 0 0 1 -1.616414,-1.893184"
       sodipodi:open="true" /><path
       style="fill:#000000;fill-opacity:1;stroke:none;stroke-width:7.1032;stroke-dasharray:none;stroke-opacity:1"
       id="path6509-0"
       sodipodi:type="arc"
       sodipodi:cx="66.863525"
       sodipodi:cy="49.321102"
       sodipodi:rx="1.4028955"
       sodipodi:ry="2.5999806"
       sodipodi:start="3.1689039"
       sodipodi:end="2.8842013"
       sodipodi:arc-type="arc"
       d="m 65.461153,49.250102 a 1.4028955,2.5999806 0 0 1 1.340855,-2.52648 1.4028955,2.5999806 0 0 1 1.45514,2.299038 1.4028955,2.5999806 0 0 1 -1.133889,2.853474 1.4028955,2.5999806 0 0 1 -1.616414,-1.893184"
       sodipodi:open="true" /><path
       style="opacity:1;fill:#000000;fill-opacity:1;stroke:none;stroke-width:16.6696;stroke-dasharray:none;stroke-opacity:1"
       id="path6554"
       sodipodi:type="arc"
       sodipodi:cx="64.991249"
       sodipodi:cy="39.017056"
       sodipodi:rx="2.3018198"
       sodipodi:ry="6.674386"
       sodipodi:start="3.1689039"
       sodipodi:end="0.73284249"
       sodipodi:open="true"
       sodipodi:arc-type="arc"
       d="m 62.690288,38.834792 a 2.3018198,6.674386 0 0 1 1.706738,-6.265887 2.3018198,6.674386 0 0 1 2.557144,2.962197 2.3018198,6.674386 0 0 1 -0.252034,7.951018" /><path
       style="fill:#000000;fill-opacity:1;stroke:none;stroke-width:16.6696;stroke-dasharray:none;stroke-opacity:1"
       id="path6554-0"
       sodipodi:type="arc"
       sodipodi:cx="-41.791599"
       sodipodi:cy="39.064636"
       sodipodi:rx="2.3018198"
       sodipodi:ry="6.674386"
       sodipodi:start="3.1689039"
       sodipodi:end="0.73284249"
       sodipodi:arc-type="arc"
       d="m -44.092561,38.882373 a 2.3018198,6.674386 0 0 1 1.706739,-6.265887 2.3018198,6.674386 0 0 1 2.557143,2.962196 2.3018198,6.674386 0 0 1 -0.252033,7.951019"
       transform="scale(-1,1)"
       sodipodi:open="true" /><path
       style="opacity:1;fill:#000000;fill-opacity:1;stroke:none;stroke-width:12.6073;stroke-dasharray:none;stroke-opacity:1"
       d="m 129.82137,45.712645 8.78431,1.621897 c 1.03177,0.190503 1.52999,2.418111 1.60384,3.248332 l -20.43984,90.217456 c -0.62283,1.34746 -1.89013,2.0553 -3.32467,2.14371 L 25.994914,122.2151 c -1.054134,-0.24158 -1.888638,-1.47475 -1.828709,-2.67876 0,0 0.05025,-2.97498 0.912786,-2.91423 0.825715,0.0582 1.222612,0.1882 1.318268,0.20381 l 80.470681,13.12609 c 4.24666,1.2576 9.24018,-2.93334 9.39577,-7.09086 z"
       id="path8424"
       sodipodi:nodetypes="cscccscssccc" /></g></svg>
