<?xml version="1.0" encoding="UTF-8" standalone="no"?>
<!-- Created with Inkscape (http://www.inkscape.org/) -->

<svg
   width="121.3911mm"
   height="121.44717mm"
   viewBox="0 0 121.3911 121.44717"
   version="1.1"
   id="svg581"
   xml:space="preserve"
   inkscape:version="1.2.1 (9c6d41e410, 2022-07-14)"
   sodipodi:docname="icon.svg"
   xmlns:inkscape="http://www.inkscape.org/namespaces/inkscape"
   xmlns:sodipodi="http://sodipodi.sourceforge.net/DTD/sodipodi-0.dtd"
   xmlns="http://www.w3.org/2000/svg"
   xmlns:svg="http://www.w3.org/2000/svg"><sodipodi:namedview
     id="namedview583"
     pagecolor="#505050"
     bordercolor="#ffffff"
     borderopacity="1"
     inkscape:showpageshadow="0"
     inkscape:pageopacity="0"
     inkscape:pagecheckerboard="1"
     inkscape:deskcolor="#505050"
     inkscape:document-units="mm"
     showgrid="false"
     inkscape:zoom="1.1705808"
     inkscape:cx="40.578147"
     inkscape:cy="230.65473"
     inkscape:window-width="1600"
     inkscape:window-height="837"
     inkscape:window-x="-8"
     inkscape:window-y="-8"
     inkscape:window-maximized="1"
     inkscape:current-layer="layer2" /><defs
     id="defs578"><linearGradient
       id="linearGradient1279"
       inkscape:swatch="solid"><stop
         style="stop-color:#000000;stop-opacity:1;"
         offset="0"
         id="stop1277" /></linearGradient></defs><g
     inkscape:groupmode="layer"
     id="layer2"
     inkscape:label="Layer 2"
     style="opacity:1"
     transform="translate(-11.7807,-14.487125)"><path
       style="display:inline;opacity:1;fill:#000000;fill-opacity:1;stroke:none;stroke-width:11.3;stroke-dasharray:none;stroke-opacity:1"
       d="m 103.90028,31.621212 c 0,0 15.80996,2.29735 15.92283,2.302963 1.10137,0.05477 1.77352,1.501433 1.76807,1.897928 l -13.94921,83.056187 c -0.41454,0.97227 -0.99471,1.65228 -2.54722,1.83799 l -81.474887,-14.08786 72.215751,-0.45205 c 6.116616,0.16394 7.838036,-3.6278 7.741436,-7.119864 l 0.22812,-47.592883 1.12111,-4.774736 -1.09856,0.07058 z"
       id="path7778"
       sodipodi:nodetypes="cscccccccccc" /><rect
       style="opacity:1;fill:#000000;fill-opacity:1;stroke:none;stroke-width:11.3045;stroke-dasharray:none;stroke-opacity:1"
       id="rect1335"
       width="14.118843"
       height="87.024422"
       x="84.683281"
       y="14.487125"
       ry="1.5834641" /><rect
       style="opacity:1;fill:#000000;fill-opacity:1;stroke:none;stroke-width:11.5247;stroke-dasharray:none;stroke-opacity:1"
       id="rect1335-8"
       width="14.672276"
       height="87.034409"
       x="11.7807"
       y="14.512553"
       ry="1.5836459" /><rect
       style="opacity:1;fill:#000000;fill-opacity:1;stroke:none;stroke-width:11.3271;stroke-dasharray:none;stroke-opacity:1"
       id="rect1723"
       width="62.73151"
       height="14.654001"
       x="23.414436"
       y="14.514153"
       rx="0"
       ry="0" /><rect
       style="opacity:1;fill:#000000;fill-opacity:1;stroke:none;stroke-width:13.7923;stroke-dasharray:none;stroke-opacity:1"
       id="rect1723-1"
       width="62.73151"
       height="21.72628"
       x="24.236984"
       y="79.719788"
       rx="0"
       ry="0" /><path
       style="opacity:1;fill:#000000;fill-opacity:1;stroke:none;stroke-width:12.5502;stroke-dasharray:none;stroke-opacity:1"
       id="path2537"
       sodipodi:type="arc"
       sodipodi:cx="55.25967"
       sodipodi:cy="-79.328491"
       sodipodi:rx="24.253519"
       sodipodi:ry="14.024688"
       sodipodi:start="6.232283"
       sodipodi:end="3.166161"
       sodipodi:open="true"
       sodipodi:arc-type="arc"
       d="M 79.481775,-80.042072 A 24.253519,14.024688 0 0 1 67.923112,-67.367296 24.253519,14.024688 0 0 1 43.145275,-67.17863 24.253519,14.024688 0 0 1 31.013471,-79.67302"
       transform="scale(1,-1)" /><path
       style="opacity:1;fill:#000000;fill-opacity:1;stroke:none;stroke-width:11.372;stroke-dasharray:none;stroke-opacity:1"
       id="path3332"
       sodipodi:type="arc"
       sodipodi:cx="55.531799"
       sodipodi:cy="48.187389"
       sodipodi:rx="12.070132"
       sodipodi:ry="16.621853"
       sodipodi:start="3.1689039"
       sodipodi:end="3.1680885"
       sodipodi:arc-type="arc"
       d="M 43.466168,47.733482 A 12.070132,16.621853 0 0 1 55.858949,31.571643 12.070132,16.621853 0 0 1 67.597564,48.634522 12.070132,16.621853 0 0 1 55.209569,64.803318 12.070132,16.621853 0 0 1 43.465904,47.747031"
       sodipodi:open="true" /><rect
       style="opacity:1;fill:#000000;fill-opacity:1;stroke:none;stroke-width:11.4212;stroke-dasharray:none;stroke-opacity:1"
       id="rect6501"
       width="16.082441"
       height="6.073369"
       x="47.268394"
       y="60.853561" /><path
       style="opacity:1;fill:#000000;fill-opacity:1;stroke:none;stroke-width:15.1578;stroke-dasharray:none;stroke-opacity:1"
       id="path6503"
       sodipodi:type="arc"
       sodipodi:cx="55.299309"
       sodipodi:cy="40.276028"
       sodipodi:rx="12.306877"
       sodipodi:ry="8.6305771"
       sodipodi:start="3.1689039"
       sodipodi:end="2.8842013"
       sodipodi:open="true"
       sodipodi:arc-type="arc"
       d="M 42.997021,40.040345 A 12.306877,8.6305771 0 0 1 54.759648,31.653752 12.306877,8.6305771 0 0 1 67.52484,39.285354 12.306877,8.6305771 0 0 1 57.577821,48.757398 12.306877,8.6305771 0 0 1 43.397853,42.473016" /><path
       style="opacity:1;fill:#000000;fill-opacity:1;stroke:none;stroke-width:6.36662;stroke-dasharray:none;stroke-opacity:1"
       id="path6509"
       sodipodi:type="arc"
       sodipodi:cx="43.552795"
       sodipodi:cy="52.000427"
       sodipodi:rx="1.2571298"
       sodipodi:ry="2.3309076"
       sodipodi:start="3.1689039"
       sodipodi:end="2.8842013"
       sodipodi:arc-type="arc"
       d="m 42.296134,51.936775 a 1.2571298,2.3309076 0 0 1 1.201536,-2.265013 1.2571298,2.3309076 0 0 1 1.303946,2.061109 1.2571298,2.3309076 0 0 1 -1.016074,2.558167 1.2571298,2.3309076 0 0 1 -1.448463,-1.697258"
       sodipodi:open="true" /><path
       style="fill:#000000;fill-opacity:1;stroke:none;stroke-width:6.36662;stroke-dasharray:none;stroke-opacity:1"
       id="path6509-0"
       sodipodi:type="arc"
       sodipodi:cx="67.446709"
       sodipodi:cy="52.000427"
       sodipodi:rx="1.2571298"
       sodipodi:ry="2.3309076"
       sodipodi:start="3.1689039"
       sodipodi:end="2.8842013"
       sodipodi:arc-type="arc"
       d="m 66.190048,51.936775 a 1.2571298,2.3309076 0 0 1 1.201535,-2.265013 1.2571298,2.3309076 0 0 1 1.303946,2.061109 1.2571298,2.3309076 0 0 1 -1.016074,2.558167 1.2571298,2.3309076 0 0 1 -1.448463,-1.697258"
       sodipodi:open="true" /><path
       style="opacity:1;fill:#000000;fill-opacity:1;stroke:none;stroke-width:14.941;stroke-dasharray:none;stroke-opacity:1"
       id="path6554"
       sodipodi:type="arc"
       sodipodi:cx="65.768967"
       sodipodi:cy="42.762753"
       sodipodi:rx="2.0626528"
       sodipodi:ry="5.9836512"
       sodipodi:start="3.1689039"
       sodipodi:end="0.73284249"
       sodipodi:open="true"
       sodipodi:arc-type="arc"
       d="m 63.707083,42.599352 a 2.0626528,5.9836512 0 0 1 1.529403,-5.617428 2.0626528,5.9836512 0 0 1 2.291447,2.655637 2.0626528,5.9836512 0 0 1 -0.225846,7.128165" /><path
       style="fill:#000000;fill-opacity:1;stroke:none;stroke-width:14.941;stroke-dasharray:none;stroke-opacity:1"
       id="path6554-0"
       sodipodi:type="arc"
       sodipodi:cx="-44.979839"
       sodipodi:cy="42.805408"
       sodipodi:rx="2.0626528"
       sodipodi:ry="5.9836512"
       sodipodi:start="3.1689039"
       sodipodi:end="0.73284249"
       sodipodi:arc-type="arc"
       d="m -47.041723,42.642008 a 2.0626528,5.9836512 0 0 1 1.529403,-5.617428 2.0626528,5.9836512 0 0 1 2.291447,2.655637 2.0626528,5.9836512 0 0 1 -0.225846,7.128165"
       transform="scale(-1,1)"
       sodipodi:open="true" /><path
       style="opacity:1;fill:#000000;fill-opacity:1;stroke:none;stroke-width:11.3;stroke-dasharray:none;stroke-opacity:1"
       d="m 123.86301,48.765412 7.87159,1.454046 c 0.92457,0.170788 1.37102,2.16786 1.4372,2.912161 l -18.31607,80.880811 c -0.55812,1.20801 -1.69374,1.8426 -2.97923,1.92186 L 30.824486,117.3506 c -0.944606,-0.21658 -1.692402,-1.32213 -1.6387,-2.40154 0,0 0.04503,-2.6671 0.817944,-2.61263 0.739921,0.0522 1.095579,0.16872 1.181296,0.18271 l 72.109494,11.76767 c 3.80542,1.12745 8.2801,-2.62977 8.41952,-6.35702 z"
       id="path8424"
       sodipodi:nodetypes="cscccscssccc" /></g></svg>
